<svg xmlns="http://www.w3.org/2000/svg" viewBox="0 0 784.1 233.339"><defs><style>.a{fill:rgba(204,204,204,0.4);stroke:rgba(0,0,0,0);}</style></defs><path class="a" d="M384.7,309.845s.185-1.134,0-1.29c1.052-6.6,9.887-4.473,9.887-4.473a29.574,29.574,0,0,0,17.132.737c9.817-2.368,17.13.005,18,2.708s4.737,22.21-21.632,23.011c-.482.014-.953.022-1.417.022C381.834,330.558,384.7,309.845,384.7,309.845Zm-224.728,2.461V129.245H174.42a5.931,5.931,0,0,1,6.345,4.995l2.16,16.2A70.844,70.844,0,0,1,202.9,133.3a51.309,51.309,0,0,1,25.92-6.48,49.686,49.686,0,0,1,21.465,4.522A43.979,43.979,0,0,1,266.625,144.7a64.1,64.1,0,0,1,10.4,21.938,112.6,112.6,0,0,1,3.645,30.1,94.361,94.361,0,0,1-4.05,28.147,67.82,67.82,0,0,1-11.678,22.545,54.02,54.02,0,0,1-43.4,20.452q-12.555,0-21.533-4.253a50.6,50.6,0,0,1-15.863-11.812v60.48Zm40.432-160.65A59.347,59.347,0,0,0,184.14,166.91v66.15q6.615,8.91,14.445,12.555a41.093,41.093,0,0,0,17.55,3.645q19.17,0,29.43-13.635t10.26-38.88a97.014,97.014,0,0,0-2.363-22.95,44.878,44.878,0,0,0-6.818-15.728,26.526,26.526,0,0,0-10.935-8.977A36.371,36.371,0,0,0,221,146.255,38.709,38.709,0,0,0,200.408,151.655ZM393.277,278.693c-1.684,0-3.423-.076-5.206-.242-17.574-1.639-17.779-16.678-18.071-23.6s11.072-7.97,15.66-7.93,18.475-3.468,20.366-4.237,16.707-5.065,20.316,6.175-2.6,20.516-5.112,22.292c-2.259,1.6-13.038,7.538-27.949,7.538ZM28.755,263.5a65.678,65.678,0,0,1-19.71-11.947l5.67-9.18a8.237,8.237,0,0,1,2.565-2.7,6.924,6.924,0,0,1,3.78-.945,9.047,9.047,0,0,1,5.13,1.89q2.7,1.89,6.547,4.185a49.822,49.822,0,0,0,9.383,4.185,43.087,43.087,0,0,0,13.77,1.89,37.561,37.561,0,0,0,12.285-1.822,25.8,25.8,0,0,0,8.775-4.928,19.512,19.512,0,0,0,5.2-7.155,22.237,22.237,0,0,0,1.688-8.64,14.33,14.33,0,0,0-3.037-9.382,25.634,25.634,0,0,0-8.033-6.345,65.458,65.458,0,0,0-11.407-4.59q-6.413-1.957-13.1-4.117t-13.1-4.928A46.034,46.034,0,0,1,23.76,192.02a31.5,31.5,0,0,1-8.033-10.327,33.4,33.4,0,0,1-3.037-14.917,36.384,36.384,0,0,1,3.24-15.053,36.914,36.914,0,0,1,9.45-12.69,46.539,46.539,0,0,1,15.255-8.707,61.048,61.048,0,0,1,20.655-3.24,65.33,65.33,0,0,1,24.232,4.253,57.347,57.347,0,0,1,18.563,11.677l-5.4,8.775a5.326,5.326,0,0,1-5,2.97,9.4,9.4,0,0,1-4.59-1.485q-2.565-1.485-6.277-3.307a58.956,58.956,0,0,0-8.842-3.375,42.182,42.182,0,0,0-12.15-1.553A35.856,35.856,0,0,0,50.9,146.593a26.259,26.259,0,0,0-8.3,4.252,18.81,18.81,0,0,0-5.265,6.278,16.854,16.854,0,0,0-1.822,7.762,12.932,12.932,0,0,0,3.037,8.775,26.4,26.4,0,0,0,8.033,6.075,70.025,70.025,0,0,0,11.34,4.523q6.345,1.958,13.028,4.185T83.97,193.37a47.273,47.273,0,0,1,11.34,6.75,30.873,30.873,0,0,1,8.032,9.923,30.371,30.371,0,0,1,3.038,14.107,44.675,44.675,0,0,1-3.375,17.482,38.15,38.15,0,0,1-9.99,13.9,48.173,48.173,0,0,1-16.2,9.247,66.556,66.556,0,0,1-22.14,3.375A69.061,69.061,0,0,1,28.755,263.5Zm683.222-.4a57.333,57.333,0,0,1-20.655-14.04,64.409,64.409,0,0,1-13.567-22.883q-4.86-13.635-4.86-31.32a79.685,79.685,0,0,1,4.388-26.73A63,63,0,0,1,689.9,146.593a58.108,58.108,0,0,1,20.115-14.31,66.031,66.031,0,0,1,26.73-5.2A61.573,61.573,0,0,1,759.5,131.2a51.45,51.45,0,0,1,18.09,11.88,54.425,54.425,0,0,1,11.948,19.17A61.758,61.758,0,0,1,792,170.5v26.046a5.868,5.868,0,0,1-3.95,1.149h-91.4a79.955,79.955,0,0,0,3.578,22.545,45.285,45.285,0,0,0,8.842,16,35.7,35.7,0,0,0,13.5,9.585,46.361,46.361,0,0,0,17.55,3.173,51.486,51.486,0,0,0,15.592-2.092,74.187,74.187,0,0,0,11.273-4.522,85.989,85.989,0,0,0,7.9-4.523,10.47,10.47,0,0,1,5.468-2.092,5.288,5.288,0,0,1,4.59,2.295l6.75,8.775a45.644,45.644,0,0,1-10.665,9.383,66.405,66.405,0,0,1-13.3,6.547,84.461,84.461,0,0,1-14.648,3.848A89.463,89.463,0,0,1,738.1,267.89,69.536,69.536,0,0,1,711.977,263.1Zm-2.025-108.27q-10.057,10.057-12.487,27.877h74.79a47.379,47.379,0,0,0-2.363-15.322,34.413,34.413,0,0,0-6.885-12.015,30.718,30.718,0,0,0-11-7.83,37.144,37.144,0,0,0-14.715-2.768Q720.01,144.77,709.952,154.828ZM595.81,266V178.925q0-15.525-7.088-24.1t-21.532-8.573a40.394,40.394,0,0,0-19.913,5.13,65.578,65.578,0,0,0-17.078,13.9V266H506.035V129.245H520.48a5.931,5.931,0,0,1,6.345,4.995l1.89,14.85a81.139,81.139,0,0,1,9.45-9.045,62.3,62.3,0,0,1,10.6-6.952,53.808,53.808,0,0,1,11.88-4.455,56.41,56.41,0,0,1,13.568-1.553,49.381,49.381,0,0,1,19.778,3.712,38.265,38.265,0,0,1,14.31,10.53A46.5,46.5,0,0,1,617,157.73a71.381,71.381,0,0,1,2.97,21.195V266Zm-221.9-44.881q-1.741,0-3.556-.031c-23.51-.4-25.763-29.634-25.763-29.634A13.967,13.967,0,0,1,348,180.8c4.327-4.849,16.177-.478,28.521,0,5.5.212,11.065-.7,16.562-1.623,6.851-1.143,13.589-2.286,19.934-1.242,11.437,1.881,7.483,22.254,1.418,31.18-5.753,8.465-19.1,12.006-40.519,12.007ZM351.682,144.9c-20.568-9.266-14.672-35.483-14.062-37.814s1.917-4.843,7.006-7.8c9.186-3.592,25.989,2.77,38.31,5.092s28.377-.284,39.24,2.711,12.866,23.649,0,38.587c-5.523,6.413-15.5,8.884-26.725,8.884C380.532,154.562,363.42,150.192,351.682,144.9Z" transform="translate(-8.4 -97.721)"/></svg>