<svg width="311" height="66" viewBox="0 0 311 66" fill="none" xmlns="http://www.w3.org/2000/svg">
<path d="M17.0244 23.9505C20.2826 23.2954 21.5859 20.3475 21.5859 18.1366C21.5859 15.7619 19.3866 11.9952 13.929 12.077C7.00524 12.3227 2.76951 17.2359 2.6066 23.2954C2.44369 30.9108 9.53038 35.9058 16.8614 36.0696C27.6137 36.2334 33.9673 29.1093 33.8858 18.7917C33.8858 9.4567 26.3918 0.367367 15.1509 0.0398231C9.04164 -0.28772 3.9099 1.43188 0 4.216V11.1763C3.66553 6.83635 9.20456 4.7892 14.0105 4.87109C22.1561 4.95297 28.4282 11.1763 28.5097 18.1366C28.5097 24.8512 25.7402 29.7644 18.2462 30.9108C14.1734 31.5659 7.73834 29.1912 8.06417 22.9679C8.22708 19.7743 10.6708 17.9728 13.5217 18.0547C10.6708 21.8215 14.4178 24.5237 17.0244 23.9505Z" transform="translate(0 17.5656)" fill="#CCCCCC" fill-opacity="0.4"/>
<path d="M54.8201 41.9256L64.7577 47.0025V32.8362L56.775 33.6551L64.7577 29.2333V0.0818859H48.7923C49.4439 2.37469 51.7247 4.01241 51.7247 7.77916C51.7247 13.0199 45.534 14.2481 45.4526 19.6526C45.3711 24.8933 49.1996 26.2035 49.3625 30.5434C49.4439 34.8015 47.6519 36.7668 47.6519 36.7668C47.6519 36.7668 48.7108 35.4566 48.2221 32.263C47.3261 25.794 41.2169 25.3027 41.054 19.6526C40.891 14.7395 44.3937 13.5931 44.3937 9.17122C44.3122 4.33995 39.9136 2.62035 39.4248 -1.2202e-09H0V15.1489C4.23572 12.6923 9.36747 11.2184 15.1509 11.2184C30.8719 11.2184 40.891 22.273 40.891 36.1935C40.891 50.6055 30.8719 59.6948 17.4316 59.8586C9.69329 60.0223 3.66553 56.7469 0 52.2432V65.1811H42.5202L47.489 46.7568L51.8876 65.263H64.7577V53.062L54.8201 41.9256Z" fill="#CCCCCC" fill-opacity="0.4"/>
<path d="M0 42.4169L3.42116 38.4045C8.47145 42.9901 13.3588 45.2829 20.1197 45.2829C26.6362 45.2829 30.9534 41.7618 30.9534 36.9305V36.8486C30.9534 32.3449 28.5097 29.7246 18.3277 27.5955C7.16815 25.139 1.95495 21.536 1.95495 13.5112V13.3474C1.95495 5.65012 8.71582 0 17.9204 0C25.0071 0 30.0574 2.04715 35.0262 5.97767L31.8494 10.2357C27.2879 6.55087 22.8078 4.91315 17.7575 4.91315C11.4039 4.91315 7.41252 8.43424 7.41252 12.7742V12.938C7.41252 17.5236 9.93767 20.1439 20.6084 22.4367C31.4421 24.8114 36.4924 28.8238 36.4924 36.2754V36.4392C36.4924 44.7916 29.5686 50.2779 19.8753 50.2779C12.137 50.2779 5.78339 47.6576 0 42.4169Z" transform="translate(75.7544 15.6402)" fill="#CCCCCC" fill-opacity="0.4"/>
<path d="M4.9717e-06 0H6.10922V5.97767H4.9717e-06V0ZM0.325825 13.8387H5.70194V49.9504H0.325825V13.8387Z" transform="translate(117.786 15.2308)" fill="#CCCCCC" fill-opacity="0.4"/>
<path d="M2.48585e-06 33.0819V32.9181C2.48585e-06 21.1266 8.5529 14.0844 17.1873 14.0844C23.8667 14.0844 28.1839 17.6873 30.9534 21.7816V6.2474e-07H36.3295V51.0149H30.9534V43.727C28.021 48.067 23.7852 51.7519 17.1873 51.7519C8.5529 51.8338 2.48585e-06 44.9553 2.48585e-06 33.0819ZM31.1163 33V32.8362C31.1163 24.4839 24.7627 18.9156 18.0833 18.9156C11.1595 18.9156 5.45757 24.0744 5.45757 32.8362V33C5.45757 41.5161 11.4039 47.0025 18.0833 47.0025C24.7627 47.0025 31.1163 41.3524 31.1163 33Z" transform="translate(129.76 14.1663)" fill="#CCCCCC" fill-opacity="0.4"/>
<path d="M2.48585e-06 18.9975V18.8337C2.48585e-06 8.43425 7.33106 1.24948e-06 17.2687 1.24948e-06C27.9395 1.24948e-06 34.0487 8.51613 34.0487 19.0794C34.0487 19.8164 34.0487 20.2258 33.9673 20.799H5.45757C6.19068 28.6601 11.7297 33 18.0833 33C23.0521 33 26.4733 30.9529 29.4057 27.9231L32.7454 30.9529C29.1613 34.9653 24.7627 37.7494 17.9204 37.7494C8.06417 37.7494 2.48585e-06 30.134 2.48585e-06 18.9975ZM28.5097 16.8685C27.9395 10.3176 24.1925 4.58561 17.0244 4.58561C10.7522 4.58561 6.02776 9.8263 5.37611 16.8685H28.5097Z" transform="translate(171.71 28.2506)" fill="#CCCCCC" fill-opacity="0.4"/>
<path d="M-9.94339e-06 -6.2474e-07H37.0626V9.74442H10.7522V20.1439H33.9673V29.8883H10.7522V48.804H0.0814513V-6.2474e-07H-9.94339e-06Z" transform="translate(212.438 16.2953)" fill="#CCCCCC" fill-opacity="0.4"/>
<path d="M45.8599 0.0818852L29.5686 23.9926L46.5115 48.9677H33.9673L23.1336 32.1811L12.137 48.9677H-9.94339e-06L16.9429 24.0744L0.651655 6.24739e-07H13.1959L23.3779 15.8859L33.7229 6.24739e-07H45.8599V0.0818852Z" transform="translate(251.944 16.2134)" fill="#CCCCCC" fill-opacity="0.4"/>
<path d="M9.94339e-06 4.74938C9.94339e-06 4.33995 0.0814513 3.93052 0.162908 3.52109C0.244364 3.11166 0.407281 2.70223 0.65165 2.37469C0.896019 2.04715 1.14038 1.7196 1.38475 1.39206C1.62912 1.06452 1.95496 0.818859 2.36224 0.655087C2.68806 0.40943 3.09534 0.327544 3.50262 0.163772C3.9099 0.0818862 4.31718 -3.1237e-07 4.72446 -3.1237e-07C5.13174 -3.1237e-07 5.53903 0.0818862 5.94631 0.163772C6.35359 0.245658 6.76086 0.40943 7.08669 0.655087C7.41251 0.900745 7.73835 1.1464 8.06417 1.39206C8.39 1.7196 8.63436 1.96526 8.79728 2.37469C9.04164 2.70223 9.12311 3.11166 9.28602 3.52109C9.36747 3.93052 9.44892 4.33995 9.44892 4.74938C9.44892 5.15881 9.36747 5.56824 9.28602 5.97767C9.20456 6.3871 9.04164 6.71464 8.79728 7.12407C8.63436 7.45161 8.39 7.77916 8.06417 8.1067C7.73835 8.43424 7.49397 8.6799 7.08669 8.84367C6.67941 9.00744 6.35359 9.17121 5.94631 9.33499C5.53903 9.41687 5.13174 9.49876 4.72446 9.49876C4.31718 9.49876 3.9099 9.41687 3.50262 9.33499C3.09534 9.2531 2.76952 9.08933 2.36224 8.84367C2.03641 8.59802 1.71058 8.35236 1.38475 8.1067C1.05893 7.77916 0.814563 7.5335 0.65165 7.12407C0.407281 6.79653 0.32582 6.3871 0.162908 5.97767C0.0814513 5.56824 9.94339e-06 5.15881 9.94339e-06 4.74938ZM0.733111 4.74938C0.733111 5.32258 0.814563 5.8139 1.05893 6.30521C1.3033 6.79653 1.54767 7.20596 1.87349 7.61539C2.19932 7.94293 2.6066 8.27047 3.09534 8.43424C3.58408 8.6799 4.07281 8.76179 4.643 8.76179C4.96883 8.76179 5.37612 8.6799 5.70195 8.59801C6.02777 8.51613 6.35358 8.35236 6.67941 8.18859C7.00523 8.02481 7.2496 7.77916 7.49397 7.5335C7.73834 7.28784 7.90127 7.04218 8.14564 6.71464C8.30855 6.3871 8.47146 6.05955 8.55292 5.73201C8.63437 5.40447 8.71581 4.99504 8.71581 4.66749C8.71581 4.33995 8.63437 3.93052 8.55292 3.60298C8.47146 3.27543 8.30855 2.94789 8.14564 2.62035C7.98272 2.2928 7.73834 2.04715 7.49397 1.80149C7.2496 1.55583 7.00523 1.31017 6.67941 1.1464C6.35358 0.98263 6.10923 0.818858 5.70195 0.736972C5.37612 0.655086 4.96883 0.573201 4.643 0.573201C4.07281 0.573201 3.58408 0.655087 3.09534 0.900744C2.6066 1.1464 2.19932 1.39206 1.87349 1.80149C1.54767 2.12903 1.22184 2.62035 1.05893 3.11166C0.814563 3.68486 0.733111 4.17618 0.733111 4.74938ZM3.82844 5.40447V7.5335H2.6066V1.80149H4.56154C5.29465 1.80149 5.86485 1.96526 6.27213 2.21092C6.59795 2.45658 6.84233 2.86601 6.84233 3.43921C6.84233 3.84864 6.76088 4.17618 6.51651 4.42184C6.27214 4.66749 6.02776 4.91315 5.53903 4.99504C5.62048 5.07692 5.70193 5.07692 5.78338 5.15881C5.86484 5.24069 5.86485 5.32258 5.94631 5.40447L7.24961 7.45161H6.10923C5.94632 7.45161 5.78338 7.36973 5.78338 7.28784L4.72446 5.48635C4.64301 5.40447 4.643 5.40447 4.56154 5.32258C4.48008 5.32258 4.39864 5.24069 4.31718 5.24069H3.82844V5.40447ZM3.82844 4.58561H4.4801C4.72447 4.58561 4.88737 4.58561 5.05028 4.50372C5.2132 4.50372 5.29465 4.42184 5.3761 4.33995C5.45756 4.25806 5.53903 4.17618 5.53903 4.01241C5.53903 3.93052 5.62049 3.76675 5.62049 3.60298C5.62049 3.43921 5.62048 3.35732 5.53903 3.19355C5.53903 3.11166 5.45756 3.02978 5.3761 2.94789C5.29465 2.866 5.2132 2.78412 5.05028 2.78412C4.88737 2.78412 4.72445 2.70223 4.56154 2.70223H3.82844V4.58561Z" transform="translate(301.551 15.9677)" fill="#CCCCCC" fill-opacity="0.4"/>
</svg>
