<svg width="301" height="110" viewBox="0 0 301 110" fill="none" xmlns="http://www.w3.org/2000/svg">
<path d="M164.88 183.715H122.36V85.375C122.36 60.055 111.97 39.9348 81.46 39.9348C51.28 39.6048 42.52 60.3747 42.52 86.6647V183.715H1.95312e-05V75.9548C1.95312e-05 44.8048 11.03 0.334838 69.46 0.00483844C101.59 -0.315162 117.49 15.2648 124.96 29.2148V5.52486H164.88V183.715Z" transform="translate(126.921 78.3291) scale(0.246338 -0.246338)" fill="#CCCCCC" fill-opacity="0.4"/>
<path d="M4.88281e-05 0H42.5199V98.3501C42.5199 123.34 52.9 143.46 83.09 143.79C112.95 143.79 121.71 123.34 121.71 96.73V0H164.23V107.44C164.23 138.92 153.2 183.39 95.1 183.71C63.29 184.03 47.38 168.46 39.6 154.5C39.92 162.94 39.92 170.4 39.92 178.19H4.88281e-05V0" transform="translate(171.7 76.9706) scale(0.246338 -0.246338)" fill="#CCCCCC" fill-opacity="0.4"/>
<path d="M4.88281e-05 0H42.5199V178.19H4.88281e-05V0ZM4.88281e-05 202.21H42.5199V240.19H4.88281e-05V202.21Z" transform="translate(216.164 76.9706) scale(0.246338 -0.246338)" fill="#CCCCCC" fill-opacity="0.4"/>
<path d="M29.54 0H72.0599V145.41H102.57L89.95 178.19H72.0599V240.19H29.54V178.19H9.76562e-06V145.41H29.54V0Z" transform="translate(230.319 76.9706) scale(0.246338 -0.246338)" fill="#CCCCCC" fill-opacity="0.4"/>
<path d="M37.97 -4.88281e-05H83.41L177.22 240.51H131.78L88.93 122.04L45.44 240.51H5.37109e-05L67.18 69.1401L37.97 -4.88281e-05" transform="translate(256.349 92.3174) scale(0.246338 -0.246338)" fill="#CCCCCC" fill-opacity="0.4"/>
<path d="M282.112 221.74L359.721 355.76L397.225 221.74L359.721 87.75L282.112 221.74ZM244.283 199.98L321.905 65.9799L186.725 100.61L89.057 199.98H244.287H244.283ZM321.889 377.54L244.283 243.52H89.053L186.721 342.89L321.891 377.54H321.889ZM432.689 267.35L385.336 443.5L208.606 396.29L182.445 350.3L129.36 350.68L2.49023e-05 221.73L129.36 92.81H129.363L182.426 93.1999L208.625 47.2099L385.335 -3.90625e-05L432.688 176.13L405.796 221.74L432.688 267.35" transform="translate(0 109.251) scale(0.246338 -0.246338)" fill="#CCCCCC" fill-opacity="0.4"/>
</svg>
