<svg xmlns="http://www.w3.org/2000/svg" viewBox="0 0 242.52 85.06"><defs><style>.a,.b{fill:#3f4247;}.a{fill-rule:evenodd;}.c{fill:none;stroke:#3f4247;}</style></defs><g transform="translate(-0.514)"><path class="a" d="M21.785.652c-.833-.667-2.7-1.4-3.5,1-1,3-13,35-15.5,39s-4,9.5-1.5,9.5,4.5-.5,5-2.5c.4-1.6,5.5-2.667,8-3,4.833-1,15.1-2.7,17.5-1.5,1.294.647,2.03,2.41,2.729,4.086.922,2.209,1.78,4.267,3.771,3.414,2.8-1.2,3.167-3.5,3-4.5C36.618,32.986,26.185,5.452,21.785.652Zm.5,15.5c-.833-1-2.7-2.4-3.5,0-.21.631-.531,1.7-.93,3.037-1.5,5.009-4.1,13.7-6.07,16.463-2.5,3.5.5,4.5,2.5,3.5s10.5-3.5,12-3.5,3-2,2.5-4.5C28.385,29.152,24.285,20.319,22.285,16.152Z" transform="translate(201.715 0.889)"/><path class="b" d="M8.537,4.5c0-3.2,2-4.333,3-4.5,2.4,0,3,2.333,3,3.5.167,10.5.4,32.5,0,36.5-.5,5-4,12-10,13.5s-4.5-4-4-4.5,3,1.5,6-2.5S8.537,8.5,8.537,4.5Z" transform="translate(164.963 0.041)"/><path class="b" d="M.078,48.528c-.4-1.6.833-31.667,1.5-46.5-.167-.167-.2-.6,1-1,1.5-.5,20-.5,24-1s3,6,.5,5.5-17,1-19.5,3c-2,1.6-1.833,12.333-1.5,17.5-.167,1.333.1,4.3,2.5,5.5,3,1.5,11.5-6.5,13.5-6.5s2,4.5.5,6-11,5-13.5,6.5-3,4-2.5,6.5,6,3.5,12,1,10-.5,11,2a3.3,3.3,0,0,1-1.5,4h-26C.578,51.028.578,50.528.078,48.528Z" transform="translate(113.922 0.013)"/><path class="a" d="M.5,49.253c.333.667,1.8,1.8,5,1,1.753-.438,1.489-1.644,1.187-3.029C6.3,45.447,5.848,43.377,9.5,42.253c6.5-2,10-3,12.5,2s8.5,8,13,6.5,0-5.5-3-7.5-9-6-4.5-9.5q.493-.383.991-.761c4.21-3.214,8.473-6.469,8.009-15.739-.5-10-7.5-14-12-16C20.9-.347,7-.08.5.253l-.5,25ZM8,6.753c-.5.167-1.5,1.1-1.5,3.5v23.5c.167,2,1.2,5.6,4,4,.492-.281,1.191-.631,2.033-1.053,5.154-2.581,15.678-7.852,16.967-16.447,1.5-10-5-14.5-9-14.5C17.3,5.753,10.833,6.42,8,6.753Z" transform="translate(55 0.788)"/><path class="b" d="M0,50.041v-48c6-2.5,22-2,26-2s4.5,5.5,1.5,5.5-14,.5-18.5,2.5-3,12.5-3,15.5.5,8.5,4.5,7.5c2.744-.686,8.5-4.5,8.5-1.5s-6.5,7-10.5,8-1.5,10.5-2,12.5C6.1,51.641,2,52.041,0,50.041Z" transform="translate(3)"/><path class="c" d="M0,15l1.086-4.5M6,14.5l-.714-4m-4.2,0L3.5.5l1.786,10m-4.2,0h4.2M13,14.5,13.5,0,18,6.5m0-6v14M45,1h3m3,0H48m0,14V1M57.5.5V8m0,6.5V8m0,0,5-1.5m0-6v14M74.5,1l-4,.5V8m4,6.5h-4V8m0,0H74m26,7,1.086-4.5m4.914,4-.714-4m-4.2,0L103.5.5l1.786,10m-4.2,0h4.2M138.5,1l-4,.5V8m4,6.5h-4V8m0,0H138M94,1l-4,.5L90.25,8m.25,6.5L90.25,8m3.25-.5L90.25,8M113,1V15l4-.5M126,1l-4,4,5,5-3.5,4.5m30,0V.5L158,5l-4.5,4.5m11,5V0L170,5l-5,4,5,5.5m18.5,0V.5L193,5l-4.5,4m12-8.5V8m0,0v6.5m0-6.5,5-1.5m0,0V.5m0,6v8M217.5,1l-4,.5V8m4,6.5h-4V8m0,0H217m10.5-6.5-4,6,4,7M234,.5l3,6m0,0,.5,8m-.5-8,3-6M27,14.5V.5l5,7ZM179,1l-4,7,4,6.5L182,8Z" transform="translate(1 69)"/></g></svg>